<?xml version="1.0" encoding="UTF-8" standalone="no"?>
<!-- Created with Inkscape (http://www.inkscape.org/) -->

<svg
   xmlns:dc="http://purl.org/dc/elements/1.1/"
   xmlns:cc="http://creativecommons.org/ns#"
   xmlns:rdf="http://www.w3.org/1999/02/22-rdf-syntax-ns#"
   xmlns:svg="http://www.w3.org/2000/svg"
   xmlns="http://www.w3.org/2000/svg"
   xmlns:sodipodi="http://sodipodi.sourceforge.net/DTD/sodipodi-0.dtd"
   xmlns:inkscape="http://www.inkscape.org/namespaces/inkscape"
   width="1052.3622"
   height="744.09448"
   id="svg3009"
   version="1.1"
   inkscape:version="0.48.4 r9939"
   sodipodi:docname="clue.svg"
   inkscape:export-filename="/home/amon/sproink/arg/stage1-1/clue.png"
   inkscape:export-xdpi="360"
   inkscape:export-ydpi="360">
  <defs
     id="defs3011" />
  <sodipodi:namedview
     id="base"
     pagecolor="#ffffff"
     bordercolor="#666666"
     borderopacity="1.0"
     inkscape:pageopacity="0.0"
     inkscape:pageshadow="2"
     inkscape:zoom="0.98994949"
     inkscape:cx="537.42038"
     inkscape:cy="388.39264"
     inkscape:document-units="px"
     inkscape:current-layer="layer1"
     showgrid="false"
     inkscape:window-width="1366"
     inkscape:window-height="744"
     inkscape:window-x="0"
     inkscape:window-y="24"
     inkscape:window-maximized="1" />
  <metadata
     id="metadata3014">
    <rdf:RDF>
      <cc:Work
         rdf:about="">
        <dc:format>image/svg+xml</dc:format>
        <dc:type
           rdf:resource="http://purl.org/dc/dcmitype/StillImage" />
        <dc:title></dc:title>
      </cc:Work>
    </rdf:RDF>
  </metadata>
  <g
     inkscape:label="Layer 1"
     inkscape:groupmode="layer"
     id="layer1"
     transform="translate(0,-308.2677)">
    <rect
       style="fill:#eeeeee;fill-opacity:1;stroke:#eeeeee;stroke-opacity:1"
       id="rect3935"
       width="797.01038"
       height="66.670067"
       x="-977.8277"
       y="667.49402"
       transform="scale(-1,1)" />
    <g
       id="g3825"
       transform="matrix(-1,0,0,1,1158.645,5.3087773)">
      <path
         inkscape:connector-curvature="0"
         id="path3001-9"
         d="m 479.37826,712.89769 -0.87971,-0.88128 0.88128,-0.8797 0.88128,-0.87971 6.08628,0 6.08628,0 0.86341,0.86506 0.86341,0.86506 -0.89433,0.89593 -0.89434,0.89593 -6.05692,0 -6.05694,0 -0.8797,-0.88129 z"
         style="fill:#ff0000;fill-opacity:1;stroke:#ff0000;stroke-width:0.06178909;stroke-opacity:1" />
      <g
         id="g3783">
        <path
           style="fill:#ff0000;fill-opacity:1;stroke:#ff0000;stroke-width:0.06178909;stroke-opacity:1"
           d="m 493.65156,710.6733 -0.8797,-0.88127 0,-6.02443 0,-6.02443 0.91216,-0.91065 0.91216,-0.91064 0.87973,0.88129 0.87972,0.8813 0,6.05535 0,6.05536 -0.88127,0.8797 c -0.4847,0.48383 -0.89518,0.87969 -0.91219,0.87969 -0.017,0 -0.42678,-0.39657 -0.91061,-0.88127 z"
           id="path2999-6"
           inkscape:connector-curvature="0" />
        <path
           style="fill:#ff0000;fill-opacity:1;stroke:#ff0000;stroke-width:0.06178909;stroke-opacity:1"
           d="m 537.59919,679.90232 -0.87971,-0.88128 0.88128,-0.87971 0.88128,-0.8797 6.08628,0 6.08628,0 0.86341,0.86506 0.86341,0.86506 -0.89433,0.89593 -0.89434,0.89592 -6.05692,0 -6.05694,0 -0.8797,-0.88128 z"
           id="path2993-4-8"
           inkscape:connector-curvature="0" />
        <path
           style="fill:#ff0000;fill-opacity:1;stroke:#ff0000;stroke-width:0.06178909;stroke-opacity:1"
           d="m 537.59919,696.40001 -0.87971,-0.88128 0.88128,-0.87971 0.88128,-0.87971 6.08628,0 6.08628,0 0.86341,0.86507 0.86341,0.86506 -0.89433,0.89592 -0.89434,0.89593 -6.05692,0 -6.05694,0 -0.8797,-0.88128 z"
           id="path2997-4-6"
           inkscape:connector-curvature="0" />
        <path
           style="fill:#ff0000;fill-opacity:1;stroke:#ff0000;stroke-width:0.06178909;stroke-opacity:1"
           d="m 537.66097,679.90232 -0.8797,-0.88128 0.88128,-0.87971 0.88128,-0.8797 6.02449,0 6.02449,0 0.86341,0.86506 0.86341,0.86506 -0.89433,0.89593 -0.89433,0.89592 -5.99514,0 -5.99515,0 -0.87971,-0.88128 z"
           id="path3007-2-9"
           inkscape:connector-curvature="0" />
        <path
           style="fill:#ff0000;fill-opacity:1;stroke:#ff0000;stroke-width:0.06178909;stroke-opacity:1"
           d="m 580.98295,694.17562 -0.8797,-0.88127 0,-6.02444 0,-6.02443 0.91216,-0.91064 0.91216,-0.91065 0.87973,0.8813 0.87972,0.88129 0,6.05536 0,6.05535 -0.88127,0.8797 c -0.4847,0.48383 -0.89518,0.87969 -0.91219,0.87969 -0.017,0 -0.42678,-0.39657 -0.91061,-0.88126 z"
           id="path2995-0-2"
           inkscape:connector-curvature="0" />
        <path
           style="fill:#ff0000;fill-opacity:1;stroke:#ff0000;stroke-width:0.06178909;stroke-opacity:1"
           d="m 564.51612,710.70417 -0.84877,-0.8504 0,-6.08623 0,-6.08622 0.88128,-0.87971 0.88128,-0.8797 0.87971,0.88128 0.8797,0.88128 0,6.05535 0,6.05536 -0.88126,0.8797 c -0.4847,0.48383 -0.8952,0.87969 -0.91222,0.87969 -0.017,0 -0.4129,-0.38268 -0.87972,-0.8504 l 0,0 z"
           id="path3003-7-4"
           inkscape:connector-curvature="0" />
        <path
           style="fill:#ff0000;fill-opacity:1;stroke:#ff0000;stroke-width:0.06178909;stroke-opacity:1"
           d="m 610.09341,694.17562 -0.8797,-0.88127 0,-6.02444 0,-6.02443 0.91216,-0.91064 0.91216,-0.91065 0.87973,0.8813 0.87972,0.88129 0,6.05536 0,6.05535 -0.88127,0.8797 c -0.4847,0.48383 -0.89518,0.87969 -0.91219,0.87969 -0.017,0 -0.42678,-0.39657 -0.91061,-0.88126 z"
           id="path2995-0-1"
           inkscape:connector-curvature="0" />
        <path
           style="fill:#ff0000;fill-opacity:1;stroke:#ff0000;stroke-width:0.06178909;stroke-opacity:1"
           d="m 610.09341,710.6733 -0.8797,-0.88127 0,-6.02443 0,-6.02443 0.91216,-0.91065 0.91216,-0.91064 0.87973,0.88129 0.87972,0.8813 0,6.05535 0,6.05536 -0.88127,0.8797 c -0.4847,0.48383 -0.89518,0.87969 -0.91219,0.87969 -0.017,0 -0.42678,-0.39657 -0.91061,-0.88127 z"
           id="path2999-6-1"
           inkscape:connector-curvature="0" />
        <path
           style="fill:#ff0000;fill-opacity:1;stroke:#ff0000;stroke-width:0.06178909;stroke-opacity:1"
           d="m 624.93057,679.90232 -0.87971,-0.88128 0.88128,-0.87971 0.88128,-0.8797 6.08628,0 6.08628,0 0.86341,0.86506 0.86341,0.86506 -0.89433,0.89593 -0.89434,0.89592 -6.05692,0 -6.05694,0 -0.8797,-0.88128 z"
           id="path2993-4-0"
           inkscape:connector-curvature="0" />
        <path
           style="fill:#ff0000;fill-opacity:1;stroke:#ff0000;stroke-width:0.06178909;stroke-opacity:1"
           d="m 622.73704,694.20648 -0.84877,-0.85039 0,-6.08623 0,-6.08623 0.88128,-0.87971 0.88128,-0.8797 0.87971,0.88128 0.8797,0.88128 0,6.05536 0,6.05535 -0.88126,0.8797 c -0.4847,0.48383 -0.8952,0.87969 -0.91222,0.87969 -0.017,0 -0.4129,-0.38268 -0.87972,-0.8504 l 0,0 z"
           id="path3005-7-0"
           inkscape:connector-curvature="0" />
        <path
           style="fill:#ff0000;fill-opacity:1;stroke:#ff0000;stroke-width:0.06178909;stroke-opacity:1"
           d="m 624.99235,679.90232 -0.8797,-0.88128 0.88128,-0.87971 0.88128,-0.8797 6.02449,0 6.02449,0 0.86341,0.86506 0.86341,0.86506 -0.89433,0.89593 -0.89433,0.89592 -5.99514,0 -5.99515,0 -0.87971,-0.88128 z"
           id="path3007-2-44"
           inkscape:connector-curvature="0" />
        <path
           style="fill:#ff0000;fill-opacity:1;stroke:#ff0000;stroke-width:0.06178909;stroke-opacity:1"
           d="m 654.04103,679.90232 -0.87971,-0.88128 0.88128,-0.87971 0.88128,-0.8797 6.08628,0 6.08628,0 0.86341,0.86506 0.86341,0.86506 -0.89433,0.89593 -0.89434,0.89592 -6.05692,0 -6.05694,0 -0.8797,-0.88128 z"
           id="path2993-4-2"
           inkscape:connector-curvature="0" />
        <path
           style="fill:#ff0000;fill-opacity:1;stroke:#ff0000;stroke-width:0.06178909;stroke-opacity:1"
           d="m 654.04103,696.40001 -0.87971,-0.88128 0.88128,-0.87971 0.88128,-0.87971 6.08628,0 6.08628,0 0.86341,0.86507 0.86341,0.86506 -0.89433,0.89592 -0.89434,0.89593 -6.05692,0 -6.05694,0 -0.8797,-0.88128 z"
           id="path2997-4-2"
           inkscape:connector-curvature="0" />
        <path
           style="fill:#ff0000;fill-opacity:1;stroke:#ff0000;stroke-width:0.06178909;stroke-opacity:1"
           d="m 654.04103,712.89769 -0.87971,-0.88128 0.88128,-0.8797 0.88128,-0.87971 6.08628,0 6.08628,0 0.86341,0.86506 0.86341,0.86506 -0.89433,0.89593 -0.89434,0.89593 -6.05692,0 -6.05694,0 -0.8797,-0.88129 z"
           id="path3001-9-10"
           inkscape:connector-curvature="0" />
        <path
           style="fill:#ff0000;fill-opacity:1;stroke:#ff0000;stroke-width:0.06178909;stroke-opacity:1"
           d="m 651.8475,710.70417 -0.84877,-0.8504 0,-6.08623 0,-6.08622 0.88128,-0.87971 0.88128,-0.8797 0.87971,0.88128 0.8797,0.88128 0,6.05535 0,6.05536 -0.88126,0.8797 c -0.4847,0.48383 -0.8952,0.87969 -0.91222,0.87969 -0.017,0 -0.4129,-0.38268 -0.87972,-0.8504 l 0,0 z"
           id="path3003-7-26"
           inkscape:connector-curvature="0" />
        <path
           style="fill:#ff0000;fill-opacity:1;stroke:#ff0000;stroke-width:0.06178909;stroke-opacity:1"
           d="m 651.8475,694.20648 -0.84877,-0.85039 0,-6.08623 0,-6.08623 0.88128,-0.87971 0.88128,-0.8797 0.87971,0.88128 0.8797,0.88128 0,6.05536 0,6.05535 -0.88126,0.8797 c -0.4847,0.48383 -0.8952,0.87969 -0.91222,0.87969 -0.017,0 -0.4129,-0.38268 -0.87972,-0.8504 l 0,0 z"
           id="path3005-7-6"
           inkscape:connector-curvature="0" />
        <path
           style="fill:#ff0000;fill-opacity:1;stroke:#ff0000;stroke-width:0.06178909;stroke-opacity:1"
           d="m 654.10281,679.90232 -0.8797,-0.88128 0.88128,-0.87971 0.88128,-0.8797 6.02449,0 6.02449,0 0.86341,0.86506 0.86341,0.86506 -0.89433,0.89593 -0.89433,0.89592 -5.99514,0 -5.99515,0 -0.87971,-0.88128 z"
           id="path3007-2-0"
           inkscape:connector-curvature="0" />
        <path
           style="fill:#ff0000;fill-opacity:1;stroke:#ff0000;stroke-width:0.06178909;stroke-opacity:1"
           d="m 697.42479,694.17562 -0.8797,-0.88127 0,-6.02444 0,-6.02443 0.91216,-0.91064 0.91216,-0.91065 0.87973,0.8813 0.87972,0.88129 0,6.05536 0,6.05535 -0.88127,0.8797 c -0.4847,0.48383 -0.89518,0.87969 -0.91219,0.87969 -0.017,0 -0.42678,-0.39657 -0.91061,-0.88126 z"
           id="path2995-0-3"
           inkscape:connector-curvature="0" />
        <path
           style="fill:#ff0000;fill-opacity:1;stroke:#ff0000;stroke-width:0.06178909;stroke-opacity:1"
           d="m 680.95796,710.70417 -0.84877,-0.8504 0,-6.08623 0,-6.08622 0.88128,-0.87971 0.88128,-0.8797 0.87971,0.88128 0.8797,0.88128 0,6.05535 0,6.05536 -0.88126,0.8797 c -0.4847,0.48383 -0.8952,0.87969 -0.91222,0.87969 -0.017,0 -0.4129,-0.38268 -0.87972,-0.8504 l 0,0 z"
           id="path3003-7-29"
           inkscape:connector-curvature="0" />
        <path
           style="fill:#ff0000;fill-opacity:1;stroke:#ff0000;stroke-width:0.06178909;stroke-opacity:1"
           d="m 726.53525,694.17562 -0.8797,-0.88127 0,-6.02444 0,-6.02443 0.91216,-0.91064 0.91216,-0.91065 0.87973,0.8813 0.87972,0.88129 0,6.05536 0,6.05535 -0.88127,0.8797 c -0.4847,0.48383 -0.89518,0.87969 -0.91219,0.87969 -0.017,0 -0.42678,-0.39657 -0.91061,-0.88126 z"
           id="path2995-0-7"
           inkscape:connector-curvature="0" />
        <path
           style="fill:#ff0000;fill-opacity:1;stroke:#ff0000;stroke-width:0.06178909;stroke-opacity:1"
           d="m 712.26195,696.40001 -0.87971,-0.88128 0.88128,-0.87971 0.88128,-0.87971 6.08628,0 6.08628,0 0.86341,0.86507 0.86341,0.86506 -0.89433,0.89592 -0.89434,0.89593 -6.05692,0 -6.05694,0 -0.8797,-0.88128 z"
           id="path2997-4-5"
           inkscape:connector-curvature="0" />
        <path
           style="fill:#ff0000;fill-opacity:1;stroke:#ff0000;stroke-width:0.06178909;stroke-opacity:1"
           d="m 726.53525,710.6733 -0.8797,-0.88127 0,-6.02443 0,-6.02443 0.91216,-0.91065 0.91216,-0.91064 0.87973,0.88129 0.87972,0.8813 0,6.05535 0,6.05536 -0.88127,0.8797 c -0.4847,0.48383 -0.89518,0.87969 -0.91219,0.87969 -0.017,0 -0.42678,-0.39657 -0.91061,-0.88127 z"
           id="path2999-6-96"
           inkscape:connector-curvature="0" />
        <path
           style="fill:#ff0000;fill-opacity:1;stroke:#ff0000;stroke-width:0.06178909;stroke-opacity:1"
           d="m 508.48873,712.89769 -0.87971,-0.88128 0.88128,-0.8797 0.88128,-0.87971 6.08628,0 6.08628,0 0.86341,0.86506 0.86341,0.86506 -0.89433,0.89593 -0.89434,0.89593 -6.05692,0 -6.05694,0 -0.8797,-0.88129 z"
           id="path3001-9-9"
           inkscape:connector-curvature="0" />
        <path
           style="fill:#ff0000;fill-opacity:1;stroke:#ff0000;stroke-width:0.06178909;stroke-opacity:1"
           d="m 770.48287,679.90232 -0.87971,-0.88128 0.88128,-0.87971 0.88128,-0.8797 6.08628,0 6.08628,0 0.86341,0.86506 0.86341,0.86506 -0.89433,0.89593 -0.89434,0.89592 -6.05692,0 -6.05694,0 -0.8797,-0.88128 z"
           id="path2993-4-5"
           inkscape:connector-curvature="0" />
        <path
           style="fill:#ff0000;fill-opacity:1;stroke:#ff0000;stroke-width:0.06178909;stroke-opacity:1"
           d="m 784.75617,694.17562 -0.8797,-0.88127 0,-6.02444 0,-6.02443 0.91216,-0.91064 0.91216,-0.91065 0.87973,0.8813 0.87972,0.88129 0,6.05536 0,6.05535 -0.88127,0.8797 c -0.4847,0.48383 -0.89518,0.87969 -0.91219,0.87969 -0.017,0 -0.42678,-0.39657 -0.91061,-0.88126 z"
           id="path2995-0-51"
           inkscape:connector-curvature="0" />
        <path
           style="fill:#ff0000;fill-opacity:1;stroke:#ff0000;stroke-width:0.06178909;stroke-opacity:1"
           d="m 770.48287,696.40001 -0.87971,-0.88128 0.88128,-0.87971 0.88128,-0.87971 6.08628,0 6.08628,0 0.86341,0.86507 0.86341,0.86506 -0.89433,0.89592 -0.89434,0.89593 -6.05692,0 -6.05694,0 -0.8797,-0.88128 z"
           id="path2997-4-3"
           inkscape:connector-curvature="0" />
        <path
           style="fill:#ff0000;fill-opacity:1;stroke:#ff0000;stroke-width:0.06178909;stroke-opacity:1"
           d="m 784.75617,710.6733 -0.8797,-0.88127 0,-6.02443 0,-6.02443 0.91216,-0.91065 0.91216,-0.91064 0.87973,0.88129 0.87972,0.8813 0,6.05535 0,6.05536 -0.88127,0.8797 c -0.4847,0.48383 -0.89518,0.87969 -0.91219,0.87969 -0.017,0 -0.42678,-0.39657 -0.91061,-0.88127 z"
           id="path2999-6-2"
           inkscape:connector-curvature="0" />
        <path
           style="fill:#ff0000;fill-opacity:1;stroke:#ff0000;stroke-width:0.06178909;stroke-opacity:1"
           d="m 799.59334,712.89769 -0.87971,-0.88128 0.88128,-0.8797 0.88128,-0.87971 6.08628,0 6.08628,0 0.86341,0.86506 0.86341,0.86506 -0.89433,0.89593 -0.89434,0.89593 -6.05692,0 -6.05694,0 -0.8797,-0.88129 z"
           id="path3001-9-4"
           inkscape:connector-curvature="0" />
        <path
           style="fill:#ff0000;fill-opacity:1;stroke:#ff0000;stroke-width:0.06178909;stroke-opacity:1"
           d="m 828.7038,679.90232 -0.87971,-0.88128 0.88128,-0.87971 0.88128,-0.8797 6.08628,0 6.08628,0 0.86341,0.86506 0.86341,0.86506 -0.89433,0.89593 -0.89434,0.89592 -6.05692,0 -6.05694,0 -0.8797,-0.88128 z"
           id="path2993-4-20"
           inkscape:connector-curvature="0" />
        <path
           style="fill:#ff0000;fill-opacity:1;stroke:#ff0000;stroke-width:0.06178909;stroke-opacity:1"
           d="m 826.51027,710.70417 -0.84877,-0.8504 0,-6.08623 0,-6.08622 0.88128,-0.87971 0.88128,-0.8797 0.87971,0.88128 0.8797,0.88128 0,6.05535 0,6.05536 -0.88126,0.8797 c -0.4847,0.48383 -0.8952,0.87969 -0.91222,0.87969 -0.017,0 -0.4129,-0.38268 -0.87972,-0.8504 l 0,0 z"
           id="path3003-7-1"
           inkscape:connector-curvature="0" />
        <path
           style="fill:#ff0000;fill-opacity:1;stroke:#ff0000;stroke-width:0.06178909;stroke-opacity:1"
           d="m 872.08756,694.17562 -0.8797,-0.88127 0,-6.02444 0,-6.02443 0.91216,-0.91064 0.91216,-0.91065 0.87973,0.8813 0.87972,0.88129 0,6.05536 0,6.05535 -0.88127,0.8797 c -0.4847,0.48383 -0.89518,0.87969 -0.91219,0.87969 -0.017,0 -0.42678,-0.39657 -0.91061,-0.88126 z"
           id="path2995-0-56"
           inkscape:connector-curvature="0" />
        <path
           style="fill:#ff0000;fill-opacity:1;stroke:#ff0000;stroke-width:0.06178909;stroke-opacity:1"
           d="m 855.62073,710.70417 -0.84877,-0.8504 0,-6.08623 0,-6.08622 0.88128,-0.87971 0.88128,-0.8797 0.87971,0.88128 0.8797,0.88128 0,6.05535 0,6.05536 -0.88126,0.8797 c -0.4847,0.48383 -0.8952,0.87969 -0.91222,0.87969 -0.017,0 -0.4129,-0.38268 -0.87972,-0.8504 l 0,0 z"
           id="path3003-7-447"
           inkscape:connector-curvature="0" />
        <path
           style="fill:#ff0000;fill-opacity:1;stroke:#ff0000;stroke-width:0.06178909;stroke-opacity:1"
           d="m 886.92472,679.90232 -0.87971,-0.88128 0.88128,-0.87971 0.88128,-0.8797 6.08628,0 6.08628,0 0.86341,0.86506 0.86341,0.86506 -0.89433,0.89593 -0.89434,0.89592 -6.05692,0 -6.05694,0 -0.8797,-0.88128 z"
           id="path2993-4-9"
           inkscape:connector-curvature="0" />
        <path
           style="fill:#ff0000;fill-opacity:1;stroke:#ff0000;stroke-width:0.06178909;stroke-opacity:1"
           d="m 901.19802,694.17562 -0.8797,-0.88127 0,-6.02444 0,-6.02443 0.91216,-0.91064 0.91216,-0.91065 0.87973,0.8813 0.87972,0.88129 0,6.05536 0,6.05535 -0.88127,0.8797 c -0.4847,0.48383 -0.89518,0.87969 -0.91219,0.87969 -0.017,0 -0.42678,-0.39657 -0.91061,-0.88126 z"
           id="path2995-0-77"
           inkscape:connector-curvature="0" />
        <path
           style="fill:#ff0000;fill-opacity:1;stroke:#ff0000;stroke-width:0.06178909;stroke-opacity:1"
           d="m 901.19802,710.6733 -0.8797,-0.88127 0,-6.02443 0,-6.02443 0.91216,-0.91065 0.91216,-0.91064 0.87973,0.88129 0.87972,0.8813 0,6.05535 0,6.05536 -0.88127,0.8797 c -0.4847,0.48383 -0.89518,0.87969 -0.91219,0.87969 -0.017,0 -0.42678,-0.39657 -0.91061,-0.88127 z"
           id="path2999-6-18"
           inkscape:connector-curvature="0" />
        <path
           style="fill:#ff0000;fill-opacity:1;stroke:#ff0000;stroke-width:0.06178909;stroke-opacity:1"
           d="m 916.03518,696.40001 -0.87971,-0.88128 0.88128,-0.87971 0.88128,-0.87971 6.08628,0 6.08628,0 0.86341,0.86507 0.86341,0.86506 -0.89433,0.89592 -0.89434,0.89593 -6.05692,0 -6.05694,0 -0.8797,-0.88128 z"
           id="path2997-4-27"
           inkscape:connector-curvature="0" />
        <path
           style="fill:#ff0000;fill-opacity:1;stroke:#ff0000;stroke-width:0.06178909;stroke-opacity:1"
           d="m 959.41894,710.6733 -0.8797,-0.88127 0,-6.02443 0,-6.02443 0.91216,-0.91065 0.91216,-0.91064 0.87973,0.88129 0.87972,0.8813 0,6.05535 0,6.05536 -0.88127,0.8797 c -0.4847,0.48383 -0.89518,0.87969 -0.91219,0.87969 -0.017,0 -0.42678,-0.39657 -0.91061,-0.88127 z"
           id="path2999-6-38"
           inkscape:connector-curvature="0" />
        <path
           style="fill:#ff0000;fill-opacity:1;stroke:#ff0000;stroke-width:0.06178909;stroke-opacity:1"
           d="m 945.14564,712.89769 -0.87971,-0.88128 0.88128,-0.8797 0.88128,-0.87971 6.08628,0 6.08628,0 0.86341,0.86506 0.86341,0.86506 -0.89433,0.89593 -0.89434,0.89593 -6.05692,0 -6.05694,0 -0.8797,-0.88129 z"
           id="path3001-9-48"
           inkscape:connector-curvature="0" />
        <path
           style="fill:#ff0000;fill-opacity:1;stroke:#ff0000;stroke-width:0.06178909;stroke-opacity:1"
           d="m 755.64572,710.6733 -0.8797,-0.88127 0,-6.02443 0,-6.02443 0.91216,-0.91065 0.91216,-0.91064 0.87973,0.88129 0.87972,0.8813 0,6.05535 0,6.05536 -0.88127,0.8797 c -0.4847,0.48383 -0.89518,0.87969 -0.91219,0.87969 -0.017,0 -0.42678,-0.39657 -0.91061,-0.88127 z"
           id="path2999-6-79"
           inkscape:connector-curvature="0" />
        <path
           style="fill:#ff0000;fill-opacity:1;stroke:#ff0000;stroke-width:0.06178909;stroke-opacity:1"
           d="m 741.37242,712.89769 -0.87971,-0.88128 0.88128,-0.8797 0.88128,-0.87971 6.08628,0 6.08628,0 0.86341,0.86506 0.86341,0.86506 -0.89433,0.89593 -0.89434,0.89593 -6.05692,0 -6.05694,0 -0.8797,-0.88129 z"
           id="path3001-9-89"
           inkscape:connector-curvature="0" />
      </g>
    </g>
    <text
       xml:space="preserve"
       style="font-size:40px;font-style:normal;font-weight:normal;line-height:125%;letter-spacing:0px;word-spacing:0px;fill:#003366;fill-opacity:1;stroke:none;font-family:Sans"
       x="-969.74646"
       y="711.86426"
       id="text3615"
       sodipodi:linespacing="125%"
       transform="scale(-1,1)"><tspan
         sodipodi:role="line"
         id="tspan3617"
         x="-969.74646"
         y="711.86426"
         style="fill:#003366">http://giff.me/</tspan></text>
    <path
       style="fill:none;stroke:#ff0000;stroke-width:0.35714287;stroke-opacity:1"
       d=""
       id="path3759"
       inkscape:connector-curvature="0"
       transform="translate(0,308.2677)" />
    <path
       style="fill:none;stroke:#ff0000;stroke-width:0.35714287;stroke-opacity:1"
       d=""
       id="path3761"
       inkscape:connector-curvature="0"
       transform="translate(0,308.2677)" />
  </g>
</svg>
